<svg xmlns="http://www.w3.org/2000/svg" viewBox="0 0 480 300" width="480" height="300" stroke="#171717" stroke-width="3" stroke-linecap="round" stroke-linejoin="round" role="img" aria-hidden="true"><rect width="480" height="300" fill="#fffefc" stroke="none"/><ellipse cx="262" cy="239" rx="161" ry="24" fill="#e2d9f7"/><path d="M54 262 Q242 267 426 260" fill="none" stroke="#171717" stroke-width="2"/><g transform="translate(94 104) scale(0.8)"><circle cx="0" cy="0" r="18" fill="white" stroke-width="3"/><path d="M-18 -4 Q-15 -22 0 -21 Q15 -21 18 -6 M-18 -4 Q-8 -11 0 -12" fill="none" stroke="#171717" stroke-width="3.2"/><circle cx="-6" cy="1" r="1.3" fill="#171717" stroke-width="0"/><circle cx="7" cy="1" r="1.3" fill="#171717" stroke-width="0"/><path d="M-3 10 Q1 13 6 10" fill="none" stroke="#171717" stroke-width="1.7"/><path d="M-17 35 Q-11 23 0 25 Q13 24 17 37 L12 92 Q-1 98 -14 91 Z" fill="#cbdcfb" stroke="#171717" stroke-width="3"/><path d="M15 42 Q36 58 56 50 M-15 43 Q-31 58 -11 68" fill="none" stroke="#171717" stroke-width="3"/><path d="M-8 92 Q-18 114 -23 144 M9 92 Q20 113 28 142" fill="none" stroke="#171717" stroke-width="3"/><path d="M-32 145 q10 4 19 0 M19 144 q10 5 20 -1" fill="none" stroke="#171717" stroke-width="3.4"/></g><rect x="179" y="57" width="229" height="171" rx="10" fill="white"/><path d="M206 195 V82 M206 195 H383" fill="none" stroke="#171717" stroke-width="2.5"/><circle cx="228" cy="171" r="6" fill="#f8d7dc" stroke-width="3"/><circle cx="249" cy="158" r="6" fill="#f8d7dc" stroke-width="3"/><circle cx="268" cy="169" r="6" fill="#f8d7dc" stroke-width="3"/><circle cx="286" cy="132" r="6" fill="#f8d7dc" stroke-width="3"/><circle cx="313" cy="125" r="6" fill="#f8d7dc" stroke-width="3"/><circle cx="335" cy="103" r="6" fill="#f8d7dc" stroke-width="3"/><circle cx="356" cy="94" r="6" fill="#f8d7dc" stroke-width="3"/><path d="M222 178 Q292 142 369 83" fill="none" stroke="#171717" stroke-width="3.4"/><path d="M396 63 q14 -14 26 0 l-10 26 h-27 Z" fill="#fbe7a7" stroke="#171717" stroke-width="3"/></svg>
