<svg xmlns="http://www.w3.org/2000/svg" viewBox="0 0 480 300" width="480" height="300" stroke="#171717" stroke-width="3" stroke-linecap="round" stroke-linejoin="round" role="img" aria-hidden="true"><rect width="480" height="300" fill="#fffefc" stroke="none"/><ellipse cx="230" cy="241" rx="170" ry="22" fill="#e2d9f7"/><path d="M54 262 Q242 267 426 260" fill="none" stroke="#171717" stroke-width="2"/><g transform="translate(84 108) scale(0.78)"><circle cx="0" cy="0" r="18" fill="white" stroke-width="3"/><path d="M-18 -4 Q-15 -22 0 -21 Q15 -21 18 -6 M-18 -4 Q-8 -11 0 -12" fill="none" stroke="#171717" stroke-width="3.2"/><circle cx="-6" cy="1" r="1.3" fill="#171717" stroke-width="0"/><circle cx="7" cy="1" r="1.3" fill="#171717" stroke-width="0"/><path d="M-3 10 Q1 13 6 10" fill="none" stroke="#171717" stroke-width="1.7"/><path d="M-17 35 Q-11 23 0 25 Q13 24 17 37 L12 92 Q-1 98 -14 91 Z" fill="#ccece1" stroke="#171717" stroke-width="3"/><path d="M16 39 Q36 31 54 15 M-14 41 Q-28 55 -18 78" fill="none" stroke="#171717" stroke-width="3"/><path d="M-8 92 Q-18 114 -23 144 M9 92 Q20 113 28 142" fill="none" stroke="#171717" stroke-width="3"/><path d="M-32 145 q10 4 19 0 M19 144 q10 5 20 -1" fill="none" stroke="#171717" stroke-width="3.4"/></g><rect x="174" y="55" width="90" height="65" rx="5" fill="#fbe7a7"/><rect x="323" y="81" width="90" height="65" rx="5" fill="#cbdcfb"/><rect x="243" y="184" width="90" height="65" rx="5" fill="#f8d7dc"/><path d="M264 87 Q302 83 323 111 M219 120 Q228 158 273 184 M367 146 Q363 176 333 210" fill="none" stroke="#171717" stroke-width="2.5"/><circle cx="287" cy="91" r="5" fill="#ccece1" stroke-width="3"/><circle cx="226" cy="151" r="5" fill="#cbdcfb" stroke-width="3"/><path d="M189 76 h49 M189 93 h33 M338 101 h49 M258 205 h49" fill="none" stroke="#171717" stroke-width="2"/></svg>
